<?xml version="1.0" encoding="UTF-8"?>
<svg version="1.1" xmlns="http://www.w3.org/2000/svg" width="298" height="298">
<path d="M0 0 C98.34 0 196.68 0 298 0 C298 98.34 298 196.68 298 298 C199.66 298 101.32 298 0 298 C0 199.66 0 101.32 0 0 Z " fill="#001F3F" transform="translate(0,0)"/>
<path d="M0 0 C1.2890625 -0.00773437 2.578125 -0.01546875 3.90625 -0.0234375 C22.64698012 0.01465341 22.64698012 0.01465341 29 4.25 C29.36076355 6.19888306 29.36076355 6.19888306 29.34057617 8.60791016 C29.34034958 9.50869293 29.34012299 10.40947571 29.33988953 11.33755493 C29.32440567 12.31155243 29.30892181 13.28554993 29.29296875 14.2890625 C29.28872391 15.28505463 29.28447906 16.28104675 29.28010559 17.30722046 C29.2632768 20.49675225 29.22561676 23.68565833 29.1875 26.875 C29.1724586 29.03384506 29.15876925 31.1927 29.14648438 33.3515625 C29.11335967 38.65125612 29.06311896 43.95058337 29 49.25 C27.76008301 49.23694824 26.52016602 49.22389648 25.24267578 49.21044922 C23.60188993 49.19989377 21.96110202 49.18965661 20.3203125 49.1796875 C19.50473877 49.17026123 18.68916504 49.16083496 17.84887695 49.15112305 C6.9576017 49.10149192 0.25951737 52.48199208 -7.69140625 59.80859375 C-13.49490672 65.87390627 -16.1692716 73.54825739 -16.4375 81.875 C-16.16376879 88.25293708 -14.96877216 93.72751067 -11 98.8125 C-4.76409438 101.80053811 1.87208044 100.876859 8.3125 98.8125 C13.73098047 96.6654076 18.46968424 93.57274096 23.22973633 90.24829102 C26.55535917 87.96433768 27.82649712 87.25 32 87.25 C32 105.73 32 124.21 32 143.25 C27.19684802 145.30849371 23.50656305 146.77362977 18.5625 147.875 C17.51191406 148.11476562 16.46132812 148.35453125 15.37890625 148.6015625 C-5.62571654 152.63250745 -29.64605747 151.98242669 -49 142.25 C-49.92039063 141.80785156 -50.84078125 141.36570313 -51.7890625 140.91015625 C-69.17088678 132.07235545 -80.55463557 118.59602704 -87.03125 100.34375 C-92.73686483 80.26843856 -89.5780878 58.46088511 -79.76953125 40.3425293 C-75.74981715 33.37992564 -70.83399025 27.74228511 -65 22.25 C-64.22140625 21.51394531 -63.4428125 20.77789062 -62.640625 20.01953125 C-45.29769297 4.97541068 -22.37526192 -0.13425157 0 0 Z " fill="#689BF1" transform="translate(175,59.75)"/>
</svg>
